<svg xmlns="http://www.w3.org/2000/svg" xmlns:xlink="http://www.w3.org/1999/xlink" width="15" height="15" viewBox="0 0 42 40">
	<defs>
		<linearGradient id="logoColorSmall" y1="0.5" x2="1" y2="0.5" gradientUnits="objectBoundingBox">
			<stop offset="0" stop-color="red" />
			<stop offset="1" stop-color="#ff6f00" />
		</linearGradient>
	</defs>
	<path style="fill:url(#logoColorSmall);" d="M338.755,23.833,321.713,7.813l-2.67,2.509,11.722,11.021-.441.007a14.814,14.814,0,0,0-4.649.829l-.111.04-.043-.04L320.3,17.267l-2.669,2.511L322.121,24l-.167.122a13.863,13.863,0,0,0-2.606,2.483l-.129.16-.076-.071-13.829-13L302.643,16.2l14.713,13.833-.04.105a12.348,12.348,0,0,0-.831,4.437V35l-.318-.293-7.106-6.68-2.671,2.511,13.947,13.112a14.384,14.384,0,0,0,10.224,4.165c7.765,0,14.081-5.938,14.081-13.236A13.052,13.052,0,0,0,338.755,23.833Zm-8.194,20.43a10.585,10.585,0,0,1-7.172-2.748l-.117-.11.009-.011-.293-.277a9.335,9.335,0,0,1-2.727-6.541c0-5.341,4.621-9.687,10.3-9.687s10.3,4.346,10.3,9.687S336.243,44.263,330.562,44.263Z" transform="translate(-302.643 -7.813)" />
</svg>
